<svg width="54" height="23" viewBox="0 0 54 23" fill="none" xmlns="http://www.w3.org/2000/svg">
<path d="M10.76 22.42C9.38 22.42 8.06 22.18 6.8 21.7C5.56 21.2 4.45 20.51 3.47 19.63C2.51 18.75 1.75 17.72 1.19 16.54C0.63 15.34 0.35 14.05 0.35 12.67C0.35 11.19 0.64 9.81 1.22 8.53C1.8 7.25 2.6 6.13 3.62 5.17C4.64 4.21 5.81 3.46 7.13 2.92C8.47 2.38 9.89 2.11 11.39 2.11C11.73 2.11 12.19 2.15 12.77 2.23C13.37 2.29 13.98 2.37 14.6 2.47C15.24 2.57 15.81 2.68 16.31 2.8C16.83 2.9 17.19 3 17.39 3.1C17.49 3.14 17.55 3.19 17.57 3.25C17.61 3.29 17.64 3.36 17.66 3.46C17.74 4.04 17.81 4.62 17.87 5.2C17.93 5.76 17.96 6.24 17.96 6.64C17.96 6.78 17.91 6.92 17.81 7.06C17.73 7.18 17.63 7.24 17.51 7.24C17.31 7.24 17.16 7.15 17.06 6.97C16.96 6.79 16.88 6.61 16.82 6.43C16.7 6.11 16.57 5.84 16.43 5.62C16.31 5.38 16.13 5.12 15.89 4.84C15.77 4.68 15.51 4.48 15.11 4.24C14.73 3.98 14.21 3.75 13.55 3.55C12.89 3.35 12.08 3.25 11.12 3.25C9.96 3.25 8.9 3.5 7.94 4C6.98 4.48 6.15 5.15 5.45 6.01C4.77 6.85 4.24 7.81 3.86 8.89C3.5 9.97 3.32 11.1 3.32 12.28C3.32 13.7 3.54 14.97 3.98 16.09C4.42 17.21 5.01 18.16 5.75 18.94C6.49 19.72 7.33 20.31 8.27 20.71C9.21 21.11 10.18 21.31 11.18 21.31C12.34 21.31 13.19 21.17 13.73 20.89C14.29 20.61 14.66 20.38 14.84 20.2C15.06 19.98 15.26 19.67 15.44 19.27C15.64 18.87 15.74 18.41 15.74 17.89C15.74 17.71 15.74 17.52 15.74 17.32C15.76 17.12 15.77 16.92 15.77 16.72C15.79 16.52 15.8 16.33 15.8 16.15C15.8 15.93 15.79 15.75 15.77 15.61C15.75 15.45 15.71 15.33 15.65 15.25C15.49 15.03 15.21 14.85 14.81 14.71C14.41 14.57 14.01 14.47 13.61 14.41C13.21 14.35 12.91 14.32 12.71 14.32C12.63 14.32 12.51 14.27 12.35 14.17C12.19 14.07 12.11 13.95 12.11 13.81C12.11 13.65 12.19 13.53 12.35 13.45C12.51 13.35 12.63 13.3 12.71 13.3C13.21 13.3 13.64 13.31 14 13.33C14.36 13.35 14.73 13.37 15.11 13.39C15.49 13.41 15.95 13.42 16.49 13.42C17.01 13.42 17.45 13.4 17.81 13.36C18.17 13.32 18.62 13.3 19.16 13.3C19.24 13.3 19.36 13.33 19.52 13.39C19.7 13.45 19.79 13.58 19.79 13.78C19.79 13.92 19.7 14.04 19.52 14.14C19.36 14.24 19.24 14.3 19.16 14.32C18.72 14.44 18.41 14.62 18.23 14.86C18.07 15.08 17.96 15.39 17.9 15.79C17.84 16.23 17.8 16.62 17.78 16.96C17.76 17.3 17.75 17.66 17.75 18.04V18.85C17.75 18.95 17.77 19.03 17.81 19.09C17.85 19.15 17.89 19.23 17.93 19.33C17.99 19.43 18.07 19.52 18.17 19.6C18.27 19.68 18.32 19.76 18.32 19.84C18.32 19.92 18.3 20.03 18.26 20.17C18.24 20.29 18.12 20.37 17.9 20.41C17.76 20.43 17.48 20.55 17.06 20.77C16.66 20.97 16.15 21.2 15.53 21.46C14.91 21.72 14.2 21.94 13.4 22.12C12.6 22.32 11.72 22.42 10.76 22.42ZM22.0548 22.09C21.9548 22.09 21.8248 22.07 21.6648 22.03C21.5248 22.01 21.4548 21.94 21.4548 21.82C21.4548 21.66 21.5248 21.55 21.6648 21.49C21.8248 21.41 21.9848 21.34 22.1448 21.28C22.4448 21.18 22.7348 21.07 23.0148 20.95C23.2948 20.81 23.4348 20.54 23.4348 20.14V5.02C23.4348 4.44 23.3248 3.96 23.1048 3.58C22.9048 3.18 22.5548 2.93 22.0548 2.83C21.8948 2.79 21.8148 2.66 21.8148 2.44C21.8148 2.24 21.8848 2.12 22.0248 2.08C22.5448 1.96 22.9948 1.84 23.3748 1.72C23.7548 1.58 24.1048 1.44 24.4248 1.3C24.7648 1.16 25.0948 1.03 25.4148 0.91C25.4948 0.869999 25.5548 0.849999 25.5948 0.849999C25.6348 0.849999 25.6648 0.879999 25.6848 0.939999C25.7248 0.979999 25.7448 1.02 25.7448 1.06C25.7448 1.24 25.7048 1.63 25.6248 2.23C25.5648 2.81 25.5348 3.78 25.5348 5.14V20.14C25.5348 20.54 25.6748 20.81 25.9548 20.95C26.2348 21.07 26.5248 21.18 26.8248 21.28C26.9848 21.34 27.1348 21.41 27.2748 21.49C27.4348 21.55 27.5148 21.66 27.5148 21.82C27.5148 21.94 27.4348 22.01 27.2748 22.03C27.1348 22.07 27.0148 22.09 26.9148 22.09C26.5348 22.09 26.2248 22.07 25.9848 22.03C25.7648 22.01 25.5448 21.99 25.3248 21.97C25.1248 21.95 24.8448 21.94 24.4848 21.94C24.1448 21.94 23.8648 21.95 23.6448 21.97C23.4248 21.99 23.2048 22.01 22.9848 22.03C22.7648 22.07 22.4548 22.09 22.0548 22.09ZM29.4118 22.09C29.2318 22.09 29.0818 22.06 28.9618 22C28.8618 21.96 28.8118 21.88 28.8118 21.76C28.8118 21.6 28.8818 21.49 29.0218 21.43C29.1818 21.37 29.3418 21.32 29.5018 21.28C29.9218 21.18 30.2418 21.06 30.4618 20.92C30.6818 20.76 30.7918 20.5 30.7918 20.14V13.63C30.7918 13.09 30.6918 12.61 30.4918 12.19C30.3118 11.77 29.9618 11.52 29.4418 11.44C29.3418 11.42 29.2618 11.38 29.2018 11.32C29.1618 11.26 29.1418 11.17 29.1418 11.05C29.1418 10.83 29.2318 10.71 29.4118 10.69C30.2118 10.51 30.8718 10.27 31.3918 9.97C31.9118 9.65 32.3018 9.39 32.5618 9.19C32.7418 9.05 32.8818 8.98 32.9818 8.98C33.1018 8.98 33.1618 9.03 33.1618 9.13C33.1618 9.29 33.1318 9.61 33.0718 10.09C33.0318 10.55 32.9918 11.07 32.9518 11.65C32.9118 12.21 32.8918 12.72 32.8918 13.18V20.14C32.8918 20.48 33.0018 20.73 33.2218 20.89C33.4618 21.05 33.7818 21.18 34.1818 21.28C34.3418 21.32 34.4918 21.37 34.6318 21.43C34.7918 21.49 34.8718 21.6 34.8718 21.76C34.8718 21.98 34.6718 22.09 34.2718 22.09C33.8918 22.09 33.5818 22.07 33.3418 22.03C33.1218 22.01 32.9018 21.99 32.6818 21.97C32.4818 21.95 32.2018 21.94 31.8418 21.94C31.5018 21.94 31.2218 21.95 31.0018 21.97C30.7818 21.99 30.5618 22.01 30.3418 22.03C30.1218 22.07 29.8118 22.09 29.4118 22.09ZM31.8118 6.52C31.3918 6.52 31.0318 6.38 30.7318 6.1C30.4518 5.8 30.3118 5.44 30.3118 5.02C30.3118 4.58 30.4518 4.22 30.7318 3.94C31.0318 3.64 31.3918 3.49 31.8118 3.49C32.2518 3.49 32.6118 3.64 32.8918 3.94C33.1918 4.22 33.3418 4.58 33.3418 5.02C33.3418 5.44 33.1918 5.8 32.8918 6.1C32.6118 6.38 32.2518 6.52 31.8118 6.52ZM39.7653 22.42C39.1453 22.42 38.5653 22.32 38.0253 22.12C37.4853 21.94 37.0253 21.68 36.6453 21.34C36.5453 21.12 36.4653 20.75 36.4053 20.23C36.3653 19.71 36.3353 19.28 36.3153 18.94C36.3153 18.76 36.4453 18.67 36.7053 18.67C36.7853 18.67 36.8553 18.69 36.9153 18.73C36.9953 18.75 37.0453 18.8 37.0653 18.88C37.3253 19.86 37.7353 20.56 38.2953 20.98C38.8753 21.4 39.4553 21.61 40.0353 21.61C40.6153 21.61 41.1053 21.42 41.5053 21.04C41.9253 20.64 42.1353 20.15 42.1353 19.57C42.1353 19.03 41.9553 18.57 41.5953 18.19C41.2353 17.79 40.6053 17.31 39.7053 16.75C39.0253 16.33 38.4753 15.93 38.0553 15.55C37.6353 15.17 37.3253 14.78 37.1253 14.38C36.9453 13.98 36.8553 13.53 36.8553 13.03C36.8553 12.39 37.0053 11.81 37.3053 11.29C37.6053 10.77 38.0553 10.36 38.6553 10.06C39.2553 9.74 40.0053 9.58 40.9053 9.58C41.5053 9.58 42.0053 9.64 42.4053 9.76C42.8053 9.88 43.1053 10.01 43.3053 10.15C43.4653 10.37 43.5953 10.72 43.6953 11.2C43.8153 11.66 43.8753 12.1 43.8753 12.52C43.8753 12.66 43.7753 12.73 43.5753 12.73C43.4553 12.73 43.3353 12.71 43.2153 12.67C43.1153 12.61 43.0453 12.54 43.0053 12.46C42.7453 11.8 42.4153 11.3 42.0153 10.96C41.6353 10.6 41.1553 10.42 40.5753 10.42C40.0753 10.42 39.6253 10.57 39.2253 10.87C38.8453 11.17 38.6553 11.61 38.6553 12.19C38.6553 12.65 38.7953 13.06 39.0753 13.42C39.3753 13.78 39.9253 14.19 40.7253 14.65C41.8853 15.31 42.7453 15.93 43.3053 16.51C43.8853 17.07 44.1753 17.82 44.1753 18.76C44.1753 19.84 43.7653 20.72 42.9453 21.4C42.1253 22.08 41.0653 22.42 39.7653 22.42ZM49.4626 22.42C48.8426 22.42 48.2626 22.32 47.7226 22.12C47.1826 21.94 46.7226 21.68 46.3426 21.34C46.2426 21.12 46.1626 20.75 46.1026 20.23C46.0626 19.71 46.0326 19.28 46.0126 18.94C46.0126 18.76 46.1426 18.67 46.4026 18.67C46.4826 18.67 46.5526 18.69 46.6126 18.73C46.6926 18.75 46.7426 18.8 46.7626 18.88C47.0226 19.86 47.4326 20.56 47.9926 20.98C48.5726 21.4 49.1526 21.61 49.7326 21.61C50.3126 21.61 50.8026 21.42 51.2026 21.04C51.6226 20.64 51.8326 20.15 51.8326 19.57C51.8326 19.03 51.6526 18.57 51.2926 18.19C50.9326 17.79 50.3026 17.31 49.4026 16.75C48.7226 16.33 48.1726 15.93 47.7526 15.55C47.3326 15.17 47.0226 14.78 46.8226 14.38C46.6426 13.98 46.5526 13.53 46.5526 13.03C46.5526 12.39 46.7026 11.81 47.0026 11.29C47.3026 10.77 47.7526 10.36 48.3526 10.06C48.9526 9.74 49.7026 9.58 50.6026 9.58C51.2026 9.58 51.7026 9.64 52.1026 9.76C52.5026 9.88 52.8026 10.01 53.0026 10.15C53.1626 10.37 53.2926 10.72 53.3926 11.2C53.5126 11.66 53.5726 12.1 53.5726 12.52C53.5726 12.66 53.4726 12.73 53.2726 12.73C53.1526 12.73 53.0326 12.71 52.9126 12.67C52.8126 12.61 52.7426 12.54 52.7026 12.46C52.4426 11.8 52.1126 11.3 51.7126 10.96C51.3326 10.6 50.8526 10.42 50.2726 10.42C49.7726 10.42 49.3226 10.57 48.9226 10.87C48.5426 11.17 48.3526 11.61 48.3526 12.19C48.3526 12.65 48.4926 13.06 48.7726 13.42C49.0726 13.78 49.6226 14.19 50.4226 14.65C51.5826 15.31 52.4426 15.93 53.0026 16.51C53.5826 17.07 53.8726 17.82 53.8726 18.76C53.8726 19.84 53.4626 20.72 52.6426 21.4C51.8226 22.08 50.7626 22.42 49.4626 22.42Z" fill="#A7845A"/>
</svg>
